<svg xmlns="http://www.w3.org/2000/svg" width="32" height="32" viewBox="0 0 32 32"><path d="M27.91 11.79c.176.792.278 1.606.278 2.442 0 6.456-5.48 11.838-12.696 12.994 1.526.616 3.236.976 5.058.976 1.718 0 3.34-.316 4.804-.866 1.854.632 3.878.796 5.552.796A14.237 14.237 0 0 1 29 25.164c1.856-1.656 3-3.85 3-6.266 0-2.856-1.594-5.402-4.09-7.108zM1.472 25.418c.174.33.516.536.886.536.016 0 .034 0 .048-.002 1.058-.05 3.162-.752 5.39-2.166 1.192.21 3.862.606 4.794.606 7.034 0 12.542-4.898 12.542-11.152 0-6.15-5.624-11.152-12.542-11.152S.052 7.088.052 13.238c0 2.862 1.26 5.628 3.478 7.698a14.896 14.896 0 0 1-1.964 3.408 1.002 1.002 0 0 0-.094 1.074zm.58-12.18c0-5.046 4.728-9.152 10.542-9.152s10.542 4.106 10.542 9.152c0 5.216-4.532 9.152-10.542 9.152-.79 0-3.934-.458-4.798-.64a1 1 0 0 0-.758.146 16.74 16.74 0 0 1-2.37 1.314c.382-.718.712-1.462.988-2.23.142-.398.02-.842-.304-1.11-2.128-1.75-3.3-4.106-3.3-6.632z"/></svg>