<svg id="SvgjsSvg1012" width="288" height="288" xmlns="http://www.w3.org/2000/svg" version="1.1" xmlns:xlink="http://www.w3.org/1999/xlink" xmlns:svgjs="http://svgjs.com/svgjs"><rect id="SvgjsRect1017" width="288" height="288" rx="20" ry="20" transform="matrix(0.7916,0,0,0.7916,30.009600000000006,30.009600000000006)" fill="#5c7893"></rect><defs id="SvgjsDefs1013"></defs><g id="SvgjsG1014" transform="matrix(0.4652,0,0,0.4652,76.97102430877686,76.97891031570434)"><svg xmlns="http://www.w3.org/2000/svg" viewBox="0 0 24 24" width="288" height="288"><path d="M20.61,19.19A7,7,0,0,0,17.87,8.62,8,8,0,1,0,3.68,14.91L2.29,16.29a1,1,0,0,0-.21,1.09A1,1,0,0,0,3,18H8.69A7,7,0,0,0,15,22h6a1,1,0,0,0,.92-.62,1,1,0,0,0-.21-1.09ZM8,15a6.63,6.63,0,0,0,.08,1H5.41l.35-.34a1,1,0,0,0,0-1.42A5.93,5.93,0,0,1,4,10a6,6,0,0,1,6-6,5.94,5.94,0,0,1,5.65,4c-.22,0-.43,0-.65,0A7,7,0,0,0,8,15ZM18.54,20l.05.05H15a5,5,0,1,1,3.54-1.46,1,1,0,0,0-.3.7A1,1,0,0,0,18.54,20Z" fill="#ffffff" class="color000 svgShape"></path></svg></g></svg>