<svg id="SvgjsSvg1011" width="288" height="288" xmlns="http://www.w3.org/2000/svg" version="1.1" xmlns:xlink="http://www.w3.org/1999/xlink" xmlns:svgjs="http://svgjs.com/svgjs"><rect id="SvgjsRect1016" width="288" height="288" rx="20" ry="20" transform="matrix(0.7916,0,0,0.7916,30.009600000000006,30.009600000000006)" fill="#5c7893"></rect><defs id="SvgjsDefs1012"></defs><g id="SvgjsG1013" transform="matrix(0.4652,0,0,0.4652,77.0112,77.01141217041015)"><svg xmlns="http://www.w3.org/2000/svg" viewBox="0 0 24 24" width="288" height="288"><path d="M12,2a8,8,0,0,0-8,8c0,5.4,7.05,11.5,7.35,11.76a1,1,0,0,0,1.3,0C13,21.5,20,15.4,20,10A8,8,0,0,0,12,2Zm0,17.65c-2.13-2-6-6.31-6-9.65a6,6,0,0,1,12,0C18,13.34,14.13,17.66,12,19.65ZM12,6a4,4,0,1,0,4,4A4,4,0,0,0,12,6Zm0,6a2,2,0,1,1,2-2A2,2,0,0,1,12,12Z" fill="#ffffff" class="color000 svgShape"></path></svg></g></svg>