<svg xmlns="http://www.w3.org/2000/svg" width="163.839" height="163.839" fill-rule="evenodd" clip-rule="evenodd" image-rendering="optimizeQuality" shape-rendering="geometricPrecision" text-rendering="geometricPrecision" viewBox="0 0 1.707 1.707"><polygon fill="none" stroke="#000" stroke-linecap="round" stroke-linejoin="round" stroke-width=".05" points=".965 .472 .903 .866 .841 .687 .655 .723"/><path fill-rule="nonzero" d="M0.832043 1.53224c-0.0437283,-0.0714094 -0.093874,-0.148311 -0.145193,-0.22702 -0.0962677,-0.147638 -0.196665,-0.301614 -0.265437,-0.435098 -0.017378,-0.0337244 -0.0309331,-0.069811 -0.0400827,-0.107677 -0.00891339,-0.0369055 -0.0136417,-0.0752283 -0.0136417,-0.11439 0,-0.134102 0.0543583,-0.255516 0.142244,-0.343398 0.0878819,-0.0878858 0.209295,-0.142244 0.343398,-0.142244 0.134102,0 0.255516,0.0543583 0.343398,0.142244 0.0878858,0.0878819 0.142244,0.209295 0.142244,0.343398 0,0.0387205 -0.00455118,0.0764252 -0.0131417,0.112591 -0.00881496,0.0371063 -0.0219724,0.0726929 -0.0388976,0.106169 -0.0676142,0.133744 -0.170531,0.291197 -0.268417,0.440965 -0.0517205,0.0791299 -0.102047,0.156126 -0.143898,0.224461l-0.0212874 0.0347598 -0.0212874 -0.0347598zm-0.103398 -0.254169c0.0435787,0.0668386 0.0863268,0.132386 0.124689,0.193795 0.0382087,-0.061122 0.080311,-0.125528 0.123386,-0.191433 0.0973189,-0.148898 0.199634,-0.305433 0.265685,-0.436083 0.0150669,-0.0297992 0.0268346,-0.0617087 0.0347953,-0.0952244 0.00769685,-0.0323937 0.0117717,-0.0662441 0.0117717,-0.101071 0,-0.120295 -0.0487638,-0.229213 -0.127598,-0.308043 -0.0788307,-0.0788346 -0.187748,-0.127598 -0.308043,-0.127598 -0.120295,0 -0.229213,0.0487638 -0.308043,0.127598 -0.0788346,0.0788307 -0.127598,0.187748 -0.127598,0.308043 0,0.0356063 0.00418898,0.0699882 0.0120827,0.102673 0.00817717,0.0338465 0.0203504,0.0662047 0.0359803,0.0965433 0.0677913,0.131587 0.167394,0.284339 0.262894,0.430799z"/><circle cx=".853" cy=".648" r=".323" fill="none" stroke="#000" stroke-width=".05"/><rect width="1.707" height="1.707" fill="none"/></svg>