<svg id="SvgjsSvg1001" width="288" height="288" xmlns="http://www.w3.org/2000/svg" version="1.1" xmlns:xlink="http://www.w3.org/1999/xlink" xmlns:svgjs="http://svgjs.com/svgjs"><rect id="SvgjsRect1013" width="288" height="288" rx="68" ry="68" transform="matrix(0.7916,0,0,0.7916,30.009600000000006,30.009600000000006)" fill="#9d9de0"></rect><defs id="SvgjsDefs1002"></defs><g id="SvgjsG1008" transform="matrix(0.73,0,0,0.73,38.88000205993653,38.88000102996827)"><svg xmlns="http://www.w3.org/2000/svg" id="Layer_1" x="0" y="0" version="1.1" viewBox="0 0 29 29" xml:space="preserve" width="288" height="288"><circle cx="21" cy="7.5" r="2" fill="#000000" class="color000 svgShape"></circle><path fill="none" stroke="#000" stroke-miterlimit="10" stroke-width="2" d="M21 12.5H8a5 5 0 0 1 0-10h13a5 5 0 0 1 0 10z" class="colorStroke000 svgStroke"></path><path d="M21 14.5H8c-3.309 0-6 2.691-6 6s2.691 6 6 6h13c3.309 0 6-2.691 6-6s-2.691-6-6-6zm-13 9a3 3 0 1 1 0-6 3 3 0 0 1 0 6z" fill="#000000" class="color000 svgShape"></path></svg></g></svg>